# Blender v2.81 (sub 16) OBJ File: 'boat.blend'
# www.blender.org
mtllib boat_hull.mtl
o Cube
v -1.337165 -1.046106 1.385185
v -0.699879 -1.046106 -7.729745
v -0.846601 -0.547729 -8.368173
v -1.676250 -0.547729 1.583492
v -0.934920 0.147376 -9.010817
v -1.885229 -0.128043 1.765526
v -1.217757 -1.046106 -4.882984
v -1.676250 -0.547729 -4.882984
v -1.885229 -0.128043 -4.882984
v -1.740155 -0.061535 -5.869465
v -1.531176 -0.547729 -5.869465
v -1.072683 -1.046106 -5.869465
v -1.580064 -0.002688 -6.746824
v -1.371085 -0.547729 -6.746824
v -0.912592 -1.046106 -6.746824
v -1.158371 -0.547729 -7.729745
v -1.367351 0.059920 -7.729745
v -0.140804 -1.473720 -5.861552
v -0.273344 -1.478092 1.213207
v -0.154423 -1.474169 -5.124854
v 1.350432 -1.046106 1.385185
v 0.713146 -1.046106 -7.729745
v 0.006634 -1.046106 1.385185
v 0.006634 -1.528375 -5.141836
v 0.006634 -1.046106 -7.729745
v 0.006634 -1.528375 1.185490
v 0.006634 -0.547729 -8.368173
v 0.859868 -0.547729 -8.368173
v 1.689517 -0.547729 1.583492
v 0.006634 -0.547729 1.583492
v 0.006634 0.147376 -9.010817
v 0.948187 0.147376 -9.010817
v 1.898496 -0.128043 1.765526
v 0.006634 -0.128043 1.765526
v 1.231024 -1.046106 -4.882984
v 1.689517 -0.547729 -4.882984
v 1.898496 -0.128043 -4.882984
v 1.753422 -0.061535 -5.869465
v 0.006634 -1.481654 -5.858536
v 1.544443 -0.547729 -5.869465
v 1.085950 -1.046106 -5.869465
v 1.593331 -0.002688 -6.746824
v 1.384352 -0.547729 -6.746824
v 0.925859 -1.046106 -6.746824
v 1.171638 -0.547729 -7.729745
v 1.380618 0.059920 -7.729745
v 0.154071 -1.473720 -5.861552
v 0.286611 -1.478092 1.213207
v 0.167690 -1.474169 -5.124854
v -0.224607 0.059117 1.728065
v 0.203331 0.059191 1.445552
v 0.203330 0.059191 1.445428
v -0.198636 0.059173 1.441360
vt 0.375000 0.750000
vt 0.375000 0.750000
vt 0.375000 0.875000
vt 0.375000 0.875000
vt 0.375000 0.375000
vt 0.375000 0.375000
vt 0.375000 0.500000
vt 0.375000 0.500000
vt 0.375000 0.375000
vt 0.375000 0.500000
vt 0.375000 0.625000
vt 0.375000 0.625000
vt 0.375000 0.660582
vt 0.375000 0.667572
vt 0.375000 0.750000
vt 0.375000 0.875000
vt 0.375000 0.625000
vt 0.375000 0.655185
vt 0.375000 0.681893
vt 0.375000 0.691887
vt 0.375000 0.705430
vt 0.375000 0.725646
vt 0.375000 0.710308
vt 0.556692 0.875000
vt 0.625000 0.875000
vt 0.556692 0.840501
vt 0.558959 0.408021
vt 0.625000 0.375000
vt 0.556925 0.796062
vt 0.375000 0.750000
vt 0.375000 0.750000
vt 0.375000 0.500000
vt 0.375000 0.500000
vt 0.375000 0.500000
vt 0.375000 0.625000
vt 0.375000 0.667572
vt 0.375000 0.660582
vt 0.375000 0.625000
vt 0.375000 0.750000
vt 0.375000 0.655185
vt 0.375000 0.625000
vt 0.375000 0.691887
vt 0.375000 0.681893
vt 0.375000 0.705430
vt 0.375000 0.725646
vt 0.375000 0.710308
vt 0.556692 0.840501
vt 0.558959 0.408021
vt 0.556925 0.796062
vn 0.0000 -0.7883 -0.6153
vn 0.0000 -0.3979 0.9174
vn -0.0000 -0.3697 0.9291
vn -0.7317 -0.6731 -0.1076
vn 0.0000 -0.6789 -0.7343
vn -0.8983 -0.4144 -0.1461
vn -0.8952 -0.4457 0.0000
vn -0.9118 -0.3696 -0.1788
vn -0.7294 -0.6710 -0.1331
vn -0.7268 -0.6686 -0.1573
vn -0.9192 -0.3333 -0.2095
vn -0.6926 -0.6371 -0.3382
vn -0.8607 -0.3693 -0.3505
vn -0.0523 -0.9965 -0.0650
vn -0.0083 -0.9746 -0.2237
vn 0.0228 -0.3825 0.9237
vn -0.0000 -0.3699 0.9291
vn -0.3196 -0.9475 -0.0065
vn -0.4041 -0.9105 -0.0875
vn -0.4153 -0.9065 -0.0758
vn -0.4158 -0.9074 -0.0612
vn -0.3749 -0.9270 -0.0075
vn -0.3761 -0.9266 -0.0074
vn -0.2308 -0.9730 -0.0025
vn 0.7317 -0.6731 -0.1076
vn 0.8983 -0.4144 -0.1461
vn 0.8952 -0.4457 0.0000
vn 0.7815 -0.6239 -0.0073
vn 0.9118 -0.3696 -0.1788
vn 0.7294 -0.6710 -0.1331
vn 0.7268 -0.6686 -0.1573
vn 0.9192 -0.3333 -0.2095
vn 0.6926 -0.6371 -0.3382
vn 0.8607 -0.3693 -0.3505
vn 0.0523 -0.9965 -0.0650
vn 0.0083 -0.9746 -0.2237
vn -0.0228 -0.3825 0.9237
vn 0.3196 -0.9475 -0.0065
vn 0.4041 -0.9105 -0.0875
vn 0.4153 -0.9065 -0.0758
vn 0.4158 -0.9074 -0.0612
vn 0.3749 -0.9270 -0.0075
vn 0.3761 -0.9266 -0.0074
vn 0.2308 -0.9730 -0.0025
vn -0.7815 -0.6239 -0.0073
usemtl (null)
s off
f 2/1/1 3/2/1 27/3/1 25/4/1
f 30/5/2 34/6/2 6/7/2 4/8/2
f 23/9/3 30/5/3 4/8/3 1/10/3
f 7/11/4 8/12/4 11/13/4 12/14/4
f 3/2/5 5/15/5 31/16/5 27/3/5
f 8/12/6 9/17/6 10/18/6 11/13/6
f 4/8/7 6/7/7 9/17/7 8/12/7
f 10/18/8 13/19/8 14/20/8 11/13/8
f 11/13/9 14/20/9 15/21/9 12/14/9
f 14/20/10 16/22/10 2/1/10 15/21/10
f 13/19/11 17/23/11 16/22/11 14/20/11
f 16/22/12 3/2/12 2/1/12
f 17/23/13 5/15/13 3/2/13 16/22/13
f 39/24/14 24/25/14 18/26/14
f 25/4/15 39/24/15 18/26/15 2/1/15
f 23/9/16 19/27/16 26/28/16
f 19/27/17 23/9/17 1/10/17
f 20/29/18 18/26/18 24/25/18
f 15/21/19 2/1/19 18/26/19
f 12/14/20 15/21/20 18/26/20
f 7/11/21 12/14/21 18/26/21
f 7/11/22 18/26/22 20/29/22
f 1/10/23 7/11/23 20/29/23 19/27/23
f 19/27/24 20/29/24 24/25/24 26/28/24
f 22/30/1 25/4/1 27/3/1 28/31/1
f 30/5/2 29/32/2 33/33/2 34/6/2
f 23/9/3 21/34/3 29/32/3 30/5/3
f 35/35/25 41/36/25 40/37/25 36/38/25
f 28/31/5 27/3/5 31/16/5 32/39/5
f 36/38/26 40/37/26 38/40/26 37/41/26
f 29/32/27 36/38/27 37/41/27 33/33/27
f 21/34/28 35/35/28 36/38/28 29/32/28
f 38/40/29 40/37/29 43/42/29 42/43/29
f 40/37/30 41/36/30 44/44/30 43/42/30
f 43/42/31 44/44/31 22/30/31 45/45/31
f 42/43/32 43/42/32 45/45/32 46/46/32
f 45/45/33 22/30/33 28/31/33
f 46/46/34 45/45/34 28/31/34 32/39/34
f 39/24/35 47/47/35 24/25/35
f 25/4/36 22/30/36 47/47/36 39/24/36
f 23/9/37 26/28/37 48/48/37
f 48/48/17 21/34/17 23/9/17
f 49/49/38 24/25/38 47/47/38
f 44/44/39 47/47/39 22/30/39
f 41/36/40 47/47/40 44/44/40
f 35/35/41 47/47/41 41/36/41
f 35/35/42 49/49/42 47/47/42
f 21/34/43 48/48/43 49/49/43 35/35/43
f 48/48/44 26/28/44 24/25/44 49/49/44
f 1/10/45 4/8/45 8/12/45 7/11/45
l 51 52
