# Blender v2.81 (sub 16) OBJ File: 'boat.blend'
# www.blender.org
mtllib boat_motor.mtl
o Cube.001
v -0.000782 0.875913 -2.330732
v -0.000782 1.125749 -2.330732
v -0.000782 0.875913 -2.395231
v -0.000782 1.125749 -2.395231
v 0.055076 0.875115 -2.298482
v 0.055076 1.125749 -2.298482
v 0.110934 0.875115 -2.330732
v 0.110934 1.125749 -2.330732
v 0.110934 0.875115 -2.395231
v 0.110934 1.125749 -2.395231
v 0.055076 0.875115 -2.427481
v 0.055076 1.125749 -2.427481
v 0.192959 1.308391 -2.425502
v 0.192959 0.902250 -2.425502
v 0.171361 0.960675 -2.294481
v 0.171361 1.243308 -2.294481
v 0.185008 0.925230 -2.326856
v 0.185008 1.278752 -2.326856
v 0.197300 1.308391 -2.639235
v 0.197300 0.893366 -2.648928
v 0.126970 1.300970 -2.702826
v 0.100883 0.795177 -2.682308
v 0.126970 0.893366 -2.818051
v 0.141232 0.893366 -2.733490
v 0.100883 0.795177 -2.790872
v 0.070188 0.062196 -2.699848
v 0.070188 0.062196 -2.759376
v 0.055076 1.308391 -2.425502
v 0.055076 0.902250 -2.425502
v -0.082807 1.308391 -2.425502
v -0.082807 0.902250 -2.425502
v -0.061209 0.960675 -2.294481
v -0.061209 1.243308 -2.294481
v -0.074856 0.925230 -2.326856
v -0.074856 1.278752 -2.326856
v 0.055076 0.925230 -2.326856
v 0.055076 1.278752 -2.326856
v 0.055076 0.960675 -2.294481
v 0.055076 1.243308 -2.294481
v 0.055076 1.308391 -2.639235
v 0.055076 0.888932 -2.648928
v -0.087147 1.308391 -2.639235
v -0.087147 0.893366 -2.648928
v 0.055076 1.300970 -2.702826
v 0.055076 0.897800 -2.818051
v -0.016818 1.300970 -2.702826
v 0.009269 0.795177 -2.682308
v 0.055076 0.795177 -2.682308
v -0.016818 0.893366 -2.818051
v -0.031080 0.893366 -2.733490
v 0.055076 0.795177 -2.790872
v 0.009269 0.795177 -2.790872
v 0.039964 0.062196 -2.699848
v 0.055076 0.062196 -2.699848
v 0.055076 0.062196 -2.759376
v 0.039964 0.062196 -2.759376
vt 1.000000 0.500000
vt 1.000000 1.000000
vt 0.833333 1.000000
vt 0.833333 0.500000
vt 0.666667 1.000000
vt 0.666667 0.500000
vt 0.500000 1.000000
vt 0.500000 0.500000
vt 0.457846 0.370000
vt 0.250000 0.490000
vt 0.042154 0.370000
vt 0.042154 0.130000
vt 0.250000 0.010000
vt 0.457846 0.130000
vt 0.833333 0.500000
vt 0.833333 1.000000
vt 0.666667 0.500000
vt 0.666667 1.000000
vt 0.375000 0.500000
vt 0.375000 0.500000
vt 0.375000 0.500000
vt 0.250000 0.750000
vt 0.375000 0.750000
vt 0.625000 0.750000
vt 0.750000 0.750000
vt 0.375000 0.500000
vt 0.625000 0.500000
vt 0.625000 0.500000
vt 0.375000 0.500000
vt 0.625000 0.500000
vt 0.250000 0.500000
vt 0.375000 0.500000
vt 0.625000 0.500000
vt 0.750000 0.500000
vt 0.625000 0.375000
vt 0.625000 0.375000
vt 0.375000 0.375000
vt 0.375000 0.500000
vt 0.375000 0.375000
vt 0.625000 0.375000
vt 0.375000 0.375000
vt 0.375000 0.375000
vt 0.375000 0.375000
vt 0.375000 0.375000
vt 0.375000 0.375000
vt 0.375000 0.500000
vt 0.625000 0.375000
vt 0.375000 0.500000
vt 0.375000 0.375000
vt 0.375000 0.500000
vt 0.375000 0.750000
vt 0.625000 0.750000
vt 0.625000 0.500000
vt 0.625000 0.500000
vt 0.625000 0.500000
vt 0.375000 0.500000
vt 0.375000 0.500000
vt 0.375000 0.500000
vt 0.375000 0.500000
vt 0.375000 0.500000
vt 0.375000 0.500000
vt 0.625000 0.500000
vt 0.375000 0.500000
vt 0.000000 0.000000
vt 0.375000 0.500000
vt 0.000000 0.000000
vn -0.5000 0.0000 0.8660
vn -1.0000 0.0000 0.0000
vn -0.5000 0.0000 -0.8660
vn 0.0000 1.0000 0.0000
vn 0.5000 0.0000 0.8660
vn 1.0000 0.0000 0.0000
vn 0.5000 0.0000 -0.8660
vn 0.7050 -0.5334 -0.4674
vn 0.0000 0.0000 1.0000
vn 0.9850 0.0470 -0.1661
vn 0.9998 -0.0002 0.0199
vn 0.0000 -0.6744 0.7384
vn 0.9968 0.0000 0.0803
vn 0.0000 0.6744 0.7384
vn 0.0000 0.9577 0.2877
vn -0.0098 -0.2601 -0.9655
vn 0.0000 -0.9739 0.2269
vn 0.0158 -0.9986 0.0498
vn 0.0000 -0.0239 0.9997
vn 0.0000 0.9933 -0.1159
vn 0.0078 -0.3320 0.9432
vn 0.8334 0.0129 -0.5526
vn 0.0000 -0.0429 -0.9991
vn 0.0084 0.2734 -0.9619
vn 0.9991 -0.0418 0.0000
vn 0.9215 0.0000 0.3884
vn -0.9215 0.0000 0.3884
vn -0.9998 -0.0002 0.0199
vn -0.9968 0.0000 0.0803
vn 0.0000 0.9577 0.2878
vn 0.0098 -0.2601 -0.9655
vn -0.0158 -0.9986 0.0498
vn -0.0078 -0.3320 0.9432
vn 0.6640 0.0792 -0.7436
vn -0.0084 0.2734 -0.9619
vn 0.9363 -0.3443 -0.0691
vn -0.9991 -0.0418 0.0000
vn -0.9363 -0.3443 -0.0691
vn -0.7050 -0.5334 -0.4674
vn -0.8334 0.0129 -0.5526
vn -0.8650 0.0677 -0.4973
usemtl (null)
s off
f 5/1/1 6/2/1 2/3/1 1/4/1
f 1/4/2 2/3/2 4/5/2 3/6/2
f 3/6/3 4/5/3 12/7/3 11/8/3
f 2/9/4 6/10/4 8/11/4 10/12/4 12/13/4 4/14/4
f 5/1/5 7/15/5 8/16/5 6/2/5
f 7/15/6 9/17/6 10/18/6 8/16/6
f 9/17/7 11/8/7 12/7/7 10/18/7
f 24/19/8 20/20/8 22/21/8
f 38/22/9 15/23/9 16/24/9 39/25/9
f 23/26/10 21/27/10 24/19/10
f 13/28/11 14/29/11 20/20/11 19/30/11
f 36/31/12 17/32/12 15/23/12 38/22/12
f 18/33/13 17/32/13 14/29/13 13/28/13
f 18/33/14 37/34/14 39/25/14 16/24/14
f 13/28/15 28/35/15 37/36/15 18/33/15
f 45/37/16 23/26/16 25/38/16 51/39/16
f 13/28/4 19/30/4 40/40/4 28/35/4
f 29/41/17 14/29/17 17/32/17 36/42/17
f 20/20/18 14/29/18 29/41/18 41/43/18
f 22/21/19 48/44/19 54/45/19 26/46/19
f 40/40/20 19/30/20 21/27/20 44/47/20
f 20/20/21 41/43/21 48/44/21 22/21/21
f 19/30/22 20/20/22 24/19/22
f 51/39/23 25/38/23 27/48/23 55/49/23
f 44/47/24 21/27/24 23/26/24 45/37/24
f 22/21/25 26/46/25 27/48/25 25/38/25
f 17/32/26 18/33/26 16/24/26 15/23/26
f 34/50/27 32/51/27 33/52/27 35/53/27
f 38/22/9 39/25/9 33/52/9 32/51/9
f 30/54/28 42/55/28 43/56/28 31/57/28
f 36/31/12 38/22/12 32/51/12 34/50/12
f 35/53/29 30/54/29 31/57/29 34/50/29
f 35/53/14 33/52/14 39/25/14 37/34/14
f 30/54/30 35/53/30 37/36/30 28/35/30
f 45/37/31 51/39/31 52/58/31 49/59/31
f 30/54/4 28/35/4 40/40/4 42/55/4
f 29/41/17 36/42/17 34/50/17 31/57/17
f 43/56/32 41/43/32 29/41/32 31/57/32
f 47/60/19 53/61/19 54/45/19 48/44/19
f 40/40/20 44/47/20 46/62/20 42/55/20
f 43/56/33 47/60/33 48/44/33 41/43/33
f 21/27/34 19/30/34 24/19/34
f 51/39/23 55/49/23 56/63/23 52/58/23
f 44/47/35 45/37/35 49/59/35 46/62/35
f 25/64/36 23/26/36 24/19/36 22/21/36
f 47/60/37 52/58/37 56/63/37 53/61/37
f 50/65/38 49/59/38 52/66/38 47/60/38
f 50/65/39 47/60/39 43/56/39
f 43/56/40 42/55/40 50/65/40
f 50/65/41 42/55/41 46/62/41 49/59/41
